<svg xmlns="http://www.w3.org/2000/svg" viewBox="0 0 512 512"><path fill="#464655" d="M0 150v212l141.2-106"/><path fill="#FF4B55" d="M473.7 88.3h-403l158.8 123.6H512v-85.3a38.3 38.3 0 0 0-38.3-38.3z"/><path fill="#41479B" d="M70.6 423.7h403a38.3 38.3 0 0 0 38.4-38.3V300H229.5L70.6 423.7z"/><path fill="#73AF00" d="M56.9 88.3H38.3A38.3 38.3 0 0 0 0 126.6v6.7L155 256 0 378.7v6.7a38.3 38.3 0 0 0 38.3 38.3H57l167-132.4h288v-70.6H224.1L57 88.3z"/><path fill="#F5F5F5" d="M85.3 88.3H57l167 132.4h288V203H230.3"/><path fill="#FFE15A" d="M0 133.3v22.5L126.5 256 0 356.2v22.5L155 256"/><path fill="#F5F5F5" d="M224.1 291.3 57 423.7h28.4l145-114.7H512v-17.7"/></svg>