<svg xmlns="http://www.w3.org/2000/svg" viewBox="0 0 512 512"><path fill="#73af00" d="M474 424H38c-21 0-38-17-38-39V127c0-22 17-39 38-39h436c21 0 38 17 38 39v258c0 22-17 39-38 39z"/><g fill="#f5f5f5"><path d="M106 202c1 6 4 8 7 7 4 0 7-3 7-6v-20a2 2 0 0 1 3 0v20a7 7 0 0 0 10 6l1-1v31a3 3 0 1 0 6 0c1-1 2-16 1-33l1-1h3c4 2 9 2 12-1v-1c3-3 4-7 3-11l-3-9a3 3 0 0 0 2-6l-7-4a3 3 0 0 0-4 5l5 16c1 2 0 3-1 4v1h-4l-7-1c0-11-2-22-4-30a3 3 0 1 0-7 3c3 7 4 19 4 30l-4 2v-20a9 9 0 0 0-17 0v17l-4-17c0-2-2-3-4-3s-3 2-3 4zm7-29c2 0 3-2 3-3v-4a3 3 0 0 0-7 0v4c0 1 2 3 4 3zm34-3h4a3 3 0 1 0 0-7h-4a3 3 0 1 0 0 7z"/><path d="m125 215-18 11a3 3 0 0 0 4 6l17-11a3 3 0 1 0-3-6zm47 6 1 4 6 2c4 0 6-2 8-4v1c2 1 4 0 6-1 6-2 7-9 7-12 0-2-2-3-4-3s-3 2-3 3c0 0 0 5-3 6l-1-3c0-2-2-3-4-3-1 0-3 2-3 4 0 0 0 5-3 5v-4a3 3 0 0 0-6-4l-2 1-3-44a3 3 0 1 0-7 1l4 48-1 1c-1-4-4-6-8-6-5-1-10 3-12 7-1 5 0 9 3 11 2 1 6 2 10 0l-5 11c-3 3-7 6-12 6-2 0-5-1-6-3-4-5-4-13-4-13 0-2-1-3-3-3s-4 1-4 3c0 0 0 11 6 17a16 16 0 0 0 12 6c6 0 11-3 16-8 4-5 7-12 8-18 0 12-7 25-17 31-4 2-10 5-17 1-9-4-8-14-8-14a3 3 0 1 0-7-1s-2 15 12 21c3 2 7 3 10 3 5 0 9-1 14-4 11-7 20-23 20-37v-8zm-21 4v-2c0-2 3-3 5-3l2 2v1c-4 3-6 3-7 2zm-37 32c-1-1-3 0-4 1l-1 1c-2-4 0-10 0-12a3 3 0 0 0-7-2c0 1-2 10 0 16 2 4 4 6 6 6h1c3 0 6-4 7-5 1-2 0-4-2-5z"/><path d="m179 194 2-1 17-14h1a9 9 0 0 0-5-16c-4 0-8 4-8 8 0 3 1 5 3 7l-13 10a3 3 0 0 0 3 6zm15-24a2 2 0 1 1 0 3 2 2 0 0 1 0-3zm-4 21c-2-1-4 0-4 2 0 1-2 7 1 10l5 2 5-1a3 3 0 1 0-2-6h-3l1-3c0-2-1-4-3-4zm40-15h1c2 0 3-1 3-2l2-7a3 3 0 0 0-6-2l-2 7c-1 2 0 4 2 4zm-20 0a3 3 0 0 0 3-6v-2l1-2a3 3 0 1 0-2-7c-3 1-6 4-6 8-1 4 1 7 4 9zm-28 56a3 3 0 0 0 0 7v4a3 3 0 1 0 7 0c0-11-6-11-7-11zm59-14h2c2 0 5-1 8-4a3 3 0 1 0-5-5l-4 2-1-1a3 3 0 0 0-6 3s2 4 6 5zm59-25a3 3 0 0 0-6 2c0 1 2 5 5 6h1c3 0 5-2 7-5a3 3 0 0 0-6-4l-1 1z"/><path d="m294 257-2-41 12 24a3 3 0 0 0 7-2c-5-12-13-26-20-38l-4-31-4-3c-2 0-4 2-3 4l2 17-7-11a3 3 0 1 0 2-6l-10-4a3 3 0 0 0-5 3c-2-2-4-3-7-2-1 0-3 2-3 6l2 10c2 6 4 10 1 12-1 1-2 2-3 1-2 0-4-3-6-7v-1c1-5 0-12-1-19a3 3 0 1 0-7 1c2 12 2 21-2 25-1 2-3 2-5 2h-2c-2-4-2-14-2-20a3 3 0 0 0-3-4c-6 0-8 7-10 13l-4 8c-2 0-3-6-3-11 0-1-2-3-4-3s-3 2-3 3c0 8 2 18 10 18 6 0 8-6 10-12 0 4 1 9 4 12 2 2 4 3 7 3a13 13 0 0 0 12-6l7 5h3c2 0 5-1 7-3l1-1h3l7-2a3 3 0 0 0-4-6l-4 1-2-11-2-6h1c1 2 3 2 5 0l19 27c1 15 3 34 3 55a3 3 0 1 0 7 0zm3-77a3 3 0 1 0 7 0c0-4-3-11-4-12a3 3 0 0 0-6 3l3 9zm-16 77c-1-1-4 0-4 1l-2 3 1-7a3 3 0 0 0-6-3l-7 7a3 3 0 0 0 5 4l2 4a6 6 0 0 0 6 2c4-1 6-5 7-6 1-2 0-4-2-5z"/><path d="M280 229h-25l1-3c10-2 16-5 17-9 1-1 2-4-1-8-2-3-5-4-9-4-5 1-9 7-12 15-10 2-16 6-20 9-2-14-7-23-8-23a3 3 0 1 0-5 4s6 10 6 26-13 27-21 27c-4 0-6-4-6-8 8-6 15-12 16-18 3-9 0-15-2-19v-1a3 3 0 0 0 5-5c-2-2-6-5-10-3-1 0-3 2-3 6l2 5c1 4 3 9 2 15-1 3-6 8-12 12l-2-1c-2 0-4 2-4 4v2l-22 12a3 3 0 0 0 3 6l21-11c1 6 5 11 12 11 8 0 18-6 23-17l3 4c8 10 26 10 26 10a3 3 0 0 0 1-7s-3 0-5-2l-1-5c0-4 14-7 26-7 2 0 3-1 4-3l3-9a3 3 0 0 0-3-5zm-15-17 1 1 1 1-8 5c2-5 4-6 6-7zm-21 46c-4-1-8-3-10-6-3-3-4-7-3-12l1-2c5 0 18 2 19 6-5 2-8 5-8 9l1 5zm74-79-4-11a3 3 0 0 0-6 2l6 76c0 5-8 14-22 21a3 3 0 1 0 3 7c13-7 26-18 26-28a1992 1992 0 0 0-3-67zm29 31a3 3 0 0 0 6-3l-1-7c2 0 3-1 4-3 0-2-1-3-3-4l-6 2-2 4-4-4a3 3 0 1 0-5 5zm8 4-13 9a3 3 0 0 0 4 6l13-9a3 3 0 0 0-4-6zm-2 13c-1 1 0 3 1 5v5a3 3 0 0 0 7 0c1-7-2-10-3-11s-3 0-5 1z"/><path d="M384 253c2 0 3-2 3-4v-17l8 15a3 3 0 1 0 6-2c-3-8-9-18-16-28a766 766 0 0 0-2-35c1 0 2-1 1-3l1 1s2 4 1 9a3 3 0 0 0 7 1c1-7-2-13-2-13-1-2-3-3-5-1-1 0-2 1-2 3v-1l-6-9c-1-2-3-2-4-2-2 1-3 2-2 4l5 34-8-11a1297 1297 0 0 0-1-14c2-1 3-3 2-5l-4-7a3 3 0 0 0-6 2l1 13a905 905 0 0 0-5-8c1-2 0-4-2-5l-7-4a3 3 0 0 0-4 6l19 25a280 280 0 0 1 0 54c-2 0-7-5-10-10-1-3-3-3-4-3-4 0-5 4-8 12-2 5-4 12-7 14l-4-13a3 3 0 0 0 6-1 2296 2296 0 0 0-3-71l-4-11a3 3 0 0 0-7 2l7 79c0-2-2-3-4-3-1 0-3 2-3 4 1 7 4 19 10 21l2 1 5-3c4-3 6-11 8-17l2-5c3 5 9 11 15 10 2 0 5-1 7-6 2-6 1-25 0-44l9 13 1 29c0 2 2 4 4 4z"/><path d="m410 234-8-52 3-1c2-1 2-3 1-5l-7-8a3 3 0 0 0-6 3s7 36 10 64c2 11 0 21-5 26-4 4-8 5-13 5-2 0-4 1-4 3s2 4 3 4h2c7 0 12-2 17-7 6-7 9-18 7-32zm-38 23v5l1 1-1 1a3 3 0 1 0 5 5l3-6-3-6h-5zm-12 77h-25v-4a3 3 0 1 0-7 0v4H144c7 7 21 10 31 10h153v7c0 2 2 3 4 3h28a10 10 0 0 0 0-20zm0 14h-25v-4h28v-2 2c0 2-1 3-3 3z"/></g></svg>