<svg xmlns="http://www.w3.org/2000/svg" viewBox="0 0 512 512"><path fill="#41479b" d="M474 88H38c-21 0-38 17-38 39v258c0 22 17 39 38 39h436c21 0 38-17 38-39V127c0-22-17-39-38-39z"/><path fill="#f5f5f5" d="M9 256h15l82-54v54h44v-54l82 54h15c5 0 9-4 9-9v-7l-70-46h70v-44h-70l70-46v-7c0-5-4-9-9-9h-15l-82 54V88h-44v54L27 90c-9 3-17 9-22 17l65 43H0v44h70L0 240v7c0 5 4 9 9 9z"/><path fill="#ff4b55" d="M256 159H141V88h-26v71H0v26h115v71h26v-71h115z"/><path fill="#ff4b55" d="m8 103 73 47h16L15 97c-3 1-5 4-7 6zm158 47 89-57c-2-3-5-5-8-5h-2l-95 62zm-77 44L1 251c2 3 5 5 8 5h1l96-62zm167 54-83-54h-16l94 61c3-1 5-4 5-7z"/><path fill="#f5f5f5" d="m131 304 6 22 22-8c2-1 3 1 2 3l-13 19 20 11c2 1 1 3-1 4l-23 1 4 23c0 2-2 3-4 2l-15-17-16 17c-1 1-3 0-3-2l3-23-23-1c-2-1-2-3 0-4l20-11-14-19c-1-2 1-4 3-3l21 8 7-22c0-2 3-2 4 0zm262-156 4 10 10-4c1 0 2 1 1 2l-6 9 9 6v1l-11 1 2 11c0 1-1 2-2 1l-8-8-7 8c-1 1-2 0-2-1l2-11-11-1-1-1 10-6-6-9c-1-1 0-2 1-2l10 4 3-10h2zm-72 82 3 11 10-4c1-1 2 0 2 1l-7 9 10 6v2l-12 1 2 11-2 1-7-9-8 9s-2 0-1-1l1-11-11-1v-2l9-6-6-9c-1-1 0-2 1-1l11 4 3-11h2zm141-35 3 11 11-5 1 2-7 9 10 6v2h-11l1 11-1 1-8-8-8 8-1-1 1-11h-11v-2l10-6-7-9 1-2 11 5 3-11h2zm-69 141 4 11 10-4c1-1 2 0 1 1l-6 9 9 6v2l-11 1 2 11h-2l-8-8-7 8h-2l2-11-11-1-1-2 10-6-6-9c-1-1 0-2 1-1l10 4 3-11h2zm25-86-2 7h-8l-1 2 7 5-3 8c0 1 1 2 2 1l7-4 6 4c1 1 2 0 2-1l-3-8 7-5c1 0 1-2-1-2h-8l-2-7c-1-2-2-2-3 0z"/></svg>