<svg xmlns="http://www.w3.org/2000/svg" viewBox="0 0 512 512"><path fill="#FF4B55" d="M474 88H38c-21 0-38 17-38 39v258c0 22 17 39 38 39h436c21 0 38-17 38-39V127c0-22-17-39-38-39z"/><path fill="#FFE15A" d="m85 141 8 25h27c3 0 5 5 2 7l-21 15 8 26c1 3-3 6-6 4l-21-16-22 16c-3 2-7-1-6-4l8-26-21-15c-3-2-1-7 2-7h27l8-25c1-4 6-4 7 0zm97 6 6 8 9-3c2 0 3 1 2 2l-6 9 6 8c1 1 0 2-2 2l-9-3-7 8c0 1-2 1-2-1v-10l-10-3v-3l10-3v-10c0-2 2-2 3-1zm-37-25 10 2 4-10c1-1 3-1 3 1l2 10 10 1 1 2-9 5 2 10c0 2-2 3-3 2l-7-7-9 5-2-2 4-9-7-7c-1-1 0-3 1-3zm16 99-6 9-10-4c-1 0-2 2-1 3l6 8-6 8c-1 1 0 3 1 2l10-3 6 8h2l1-11 9-3v-3l-9-3-1-10c0-1-1-2-2-1zm37-23-11 1-4-9h-2l-3 10-10 2v2l9 5-2 10c0 2 1 2 2 2l8-7 9 5c1 0 2-1 1-2l-4-9 8-7c1-1 0-3-1-3z"/></svg>