<svg xmlns="http://www.w3.org/2000/svg" viewBox="0 0 512 512"><path fill="#41479b" d="M473.7 88.3H38.3A38.3 38.3 0 0 0 0 126.6v258.8a38.3 38.3 0 0 0 38.3 38.3h435.4a38.3 38.3 0 0 0 38.3-38.3V126.6a38.3 38.3 0 0 0-38.3-38.3z"/><path fill="#f5f5f5" d="M511.5 120.3c-3-18.2-18.8-32-37.8-32h-10L300 195.4V88.3h-88v107.1L48.3 88.3h-10c-19 0-34.7 13.8-37.8 32l139.8 91.6H0V300h140.3L.5 391.7c3 18.2 18.8 32 37.8 32h10L212 316.6v107.1h88V316.6l163.6 107.1h10c19 0 34.7-13.8 37.8-32l-139.8-91.6H512V212H371.7z"/><g fill="#ff4b55"><path d="M282.5 88.3h-53v141.2H0v53h229.5v141.2h53V282.5H512v-53H282.5z"/><path d="M24.8 421.3 211.4 300h-32.5L9.2 410.3c4.2 4.9 9.5 8.7 15.6 11zM346.4 300H314l180.7 117.3c5-3.3 9.3-7.8 12.3-13zM4 109.5l157.7 102.4h32.4L15.5 95.9A38.5 38.5 0 0 0 4 109.4zm328.5 102.4 170-110.4a38.4 38.4 0 0 0-15.7-10.9L300.1 212z"/></g></svg>