<svg xmlns="http://www.w3.org/2000/svg" viewBox="0 0 512 512"><path fill="#f5f5f5" d="M14 97c-9 7-14 18-14 30v258c0 12 5 23 14 30l242-159z"/><path fill="#ff4b55" d="M14 415c6 5 15 9 24 9h436c21 0 38-17 38-39V256H256z"/><path fill="#41479b" d="M474 88H38c-9 0-18 4-24 9l242 159h256V127c0-22-17-39-38-39z"/><g fill="#ffe15a"><circle cx="92.7" cy="256" r="28.7"/><path d="m93 256-11-43 11-14 10 14zm0 0 10 43-10 14-11-14zm0 0-43 11-15-11 15-11zm0 0 43-11 14 11-14 11zm0 0 23-38 17-3-2 18zm0 0-23 38-18 3 3-18zm0 0-38-23-3-18 18 3zm0 0 38 23 2 18-17-3zM24 132l1 11-10 5v3l12 2 1 11c0 1 2 2 3 0l5-10 12 2c1 1 2-1 1-2l-8-8 5-10c1-2 0-3-2-2l-10 4-8-8c-1-1-3 0-2 2zm4 217-2 11-11 2c-1 0-2 2 0 3l10 5-2 11c0 1 1 2 2 1l9-8 10 6c1 0 2-1 2-3l-5-10 8-8c1-1 0-2-2-2l-11 1-5-10c-1-1-3-1-3 1zm175-109-7 9-11-3c-1-1-2 1-1 2l7 9-7 9c-1 2 1 3 2 3l11-4 7 9 2-1v-11l11-4v-3l-11-3-1-12c0-1-1-2-2 0z"/></g></svg>