<svg viewBox="0 0 512 512" xmlns="http://www.w3.org/2000/svg"><path d="m512 126c-1-21-17-38-38-38h-436c-21 1-38 18-38 39v260a37 37 0 0 0 4 16l1 1v1l1 1 1 2 1 1 1 1v1l1 1 1 1h1l1 1v1h1l1 1 1 1 1 1h1l1 1h1l1 1h1l1 1h1l1 1h1a17 17 0 0 0 2 1h4l1 1h447l1-1h3l1-1h2l1-1h2v-1h1l1-1h1l2-1 1-1h1l1-1v-1h1v-1l2-1 1-1 1-1v-1l1-1h1l1-1 1-2 1-1v-2l1-2c2-4 3-9 3-14z" fill="#f5f5f5"/><path d="m0 312h512v37h-512zm3 89 1 2 1 1v1l1 1 1 2 1 1 1 1v1l1 1 1 1h1l1 1v1h1l1 1 1 1 1 1h1l1 1h1l1 1h1l1 1h1l1 1h1a13 13 0 0 0 2 1h4l1 1h447l1-1h3l1-1h2l1-1h2v-1h1l1-1h1l2-1 1-1h1l1-1v-1h1v-1l2-1 1-1 1-1v-1l1-1h1l1-1 1-2 1-1v-2l1-2c2-4 3-9 3-14h-512c0 5 1 10 3 14zm174-238v37h-70v75h405v-37h-335v-38h335v-37zm-107 37h-70v75h70zm442-74c-1-21-17-38-38-38h-367v75h70v-37zm-442-37h-32c-21 0-38 17-38 38v36h70z" fill="#41479b"/></svg>