<svg xmlns="http://www.w3.org/2000/svg" viewBox="0 0 512 512"><path fill="#fab446" d="M473.65 88.28H38.35A38.34 38.34 0 0 0 0 126.62v73.47h512v-73.47a38.34 38.34 0 0 0-38.34-38.34z"/><path fill="#73af00" d="M0 385.38a38.34 38.34 0 0 0 38.34 38.34h435.31A38.34 38.34 0 0 0 512 385.38V311.9H0z"/><path fill="#f5f5f5" d="M0 200.09h512V311.9H0z"/><g fill="#41479b"><path d="M256 303.45c-26.16 0-47.45-21.29-47.45-47.45s21.29-47.45 47.45-47.45 47.45 21.29 47.45 47.45-21.29 47.45-47.45 47.45zm0-86.07c-21.3 0-38.62 17.32-38.62 38.62s17.32 38.62 38.62 38.62 38.62-17.32 38.62-38.62-17.32-38.62-38.62-38.62z"/><circle cx="256" cy="256" r="5.38"/><path d="m256 256.8-13.67 1.39-29.36-1.38v-1.62l29.36-1.38L256 255.2zm0 0 13.67 1.39 29.36-1.38v-1.62l-29.36-1.38L256 255.2z"/><path d="m255.2 256-1.39-13.67 1.38-29.36h1.62l1.38 29.36L256.8 256zm0 0-1.39 13.67 1.38 29.36h1.62l1.38-29.36L256.8 256z"/><path d="m255.43 256.57-10.64-8.69L225 226.14l1.14-1.14 21.74 19.79 8.69 10.64z"/><path d="m255.43 256.57 8.69 10.64L285.86 287l1.14-1.14-19.79-21.74-10.64-8.69z"/><path d="m255.43 255.43 8.69-10.64L285.86 225l1.14 1.14-19.79 21.74-10.64 8.69z"/><path d="m255.43 255.43-10.64 8.69L225 285.86l1.14 1.14 21.74-19.79 8.69-10.64z"/><path d="m256.31 256.75-12.1 6.5-27.66 9.96-.61-1.49 26.6-12.5 13.15-3.96zm0 0 13.16-3.96 26.6-12.52-.62-1.49-27.66 9.96-12.1 6.51z"/><path d="m255.25 256.31-6.5-12.1-9.96-27.66 1.49-.61 12.5 26.6 3.96 13.15zm0 0 3.96 13.16 12.52 26.6 1.49-.62-9.96-27.66-6.51-12.1z"/><path d="m255.69 256.75-13.16-3.96-26.6-12.52.62-1.49 27.66 9.96 12.1 6.51z"/><path d="m255.69 256.75 12.1 6.5 27.66 9.96.61-1.49-26.6-12.5-13.16-3.96z"/><path d="m255.25 255.69 3.96-13.16 12.52-26.6 1.49.62-9.96 27.66-6.51 12.1z"/><path d="m255.25 255.69-6.5 12.1-9.96 27.66 1.49.61 12.5-26.6 3.96-13.16z"/></g><circle cx="256" cy="256" r="7.26" fill="#f5f5f5"/><circle cx="256" cy="256" r="4.35" fill="#41479b"/></svg>