<svg viewBox="0 0 512 512" xmlns="http://www.w3.org/2000/svg"><path d="m474 88h-436c-21 0-38 17-38 39v73h512v-73c0-22-17-39-38-39z" fill="#73af00"/><path d="m0 385c0 22 17 39 38 39h436c21 0 38-17 38-39v-73h-512z" fill="#ff4b55"/><g fill="#f5f5f5"><path d="m0 200h512v112h-512zm1-6 2-1v-3l1-2h6l1 2v3l2 1h11l2-1v-6l-2-2h-5l-2 2 2 1h3l1 2-1 1h-6l-2-1v-3l-1-2h-12l-1 2v6zm6 0 2-1-2-2-1 2zm-6-11h35l1-2-1-1h-35l-1 1zm35 11h-6l-1-1v-6l1-2h9l1-1v-3l1-1h1l1 1v9l1 1 2-1v-9l1-1 2 1v9l1 1 2-1v-9l1-1 1 1v12l-1 1h-12l-1-1v-3l-1-2h-6l-2 2 2 1h3l1 2zm23 0 1-1v-3l2-2h5l2 2v3l1 1h12l1-1v-6l-1-2h-6l-2 2 2 1h3l1 2-1 1h-6l-1-1v-3l-2-2h-11l-2 2v6zm5 0 2-1-2-2-1 2zm-5-11h34l1-2-1-1h-34l-2 1zm34 11h-6l-1-1v-6l1-2h9l1-1v-3l2-1 1 1v9l1 1h1l1-1v-9l1-1 2 1v9l1 1 2-1v-9l1-1 2 1v12l-2 1h-11l-2-1v-3l-1-2h-6l-1 2 1 1h3l1 2zm23 0 1-1v-3l2-2h5l2 2v3l1 1h12l1-1v-6l-1-2h-6l-1 2 1 1h3l1 2-1 1h-6l-1-1v-3l-2-2h-11l-2 2v6zm6 0 1-1-1-2-2 2zm-6-11h34l2-2-2-1h-34l-2 1zm34 11h-6l-1-1v-6l1-2h9l1-1v-3l2-1 1 1v9l2 1 1-1v-9l2-1 1 1v9l1 1h1l1-1v-9l1-1 2 1v12l-2 1h-11l-2-1v-3l-1-2h-6l-1 2 1 1h3l2 2zm23 0 1-1v-3l2-2h6l1 2v3l1 1h12l1-1v-6l-1-2h-6l-1 2 1 1h3l1 2-1 1h-6l-1-1v-3l-1-2h-12l-1 2v6zm6 0 1-1-1-2-2 2zm-6-11h34l2-2-2-1h-34l-1 1zm34 11h-5l-2-1v-6l2-2h8l2-1v-3l1-1 2 1v9l1 1 1-1v-9l2-1 1 1v9l2 1 1-1v-9l1-1h1l1 1v12l-1 1h-12l-1-1v-3l-2-2h-6l-1 2 1 1h3l2 2zm23 0 2-1v-3l1-2h6l1 2v3l2 1h11l2-1v-6l-2-2h-6l-1 2 1 1h3l2 2-2 1h-5l-2-1v-3l-1-2h-12l-1 2v6zm6 0 1-1-1-2-1 2zm-6-11h35l1-2-1-1h-35l-1 1zm35 11h-6l-2-1v-6l2-2h8l2-1v-3l1-1 2 1v9l1 1 2-1v-9l1-1 1 1v9l2 1 1-1v-9l2-1 1 1v12l-1 1h-12l-1-1v-3l-2-2h-5l-2 2 2 1h3l1 2zm22 0 2-1v-3l1-2h6l1 2v3l2 1h11l2-1v-6l-2-2h-5l-2 2 2 1h2l2 2-2 1h-5l-2-1v-3l-1-2h-12l-1 2v6zm6 0 2-1-2-2-1 2zm-6-11h35l1-2-1-1h-35l-1 1zm35 11h-6l-1-1v-6l1-2h9l1-1v-3l1-1h1l1 1v9l1 1 2-1v-9l1-1 2 1v9l1 1 1-1v-9l2-1 1 1v12l-1 1h-12l-1-1v-3l-1-2h-6l-2 2 2 1h3l1 2zm23 0 1-1v-3l1-2h6l2 2v3l1 1h12l1-1v-6l-1-2h-6l-2 2 2 1h3l1 2-1 1h-6l-2-1v-3l-1-2h-11l-2 2v6zm5 0 2-1-2-2-1 2zm-5-11h34l1-2-1-1h-34l-2 1zm34 11h-6l-1-1v-6l1-2h9l1-1v-3l2-1 1 1v9l2 1 1-1v-9l1-1 2 1v9l1 1 2-1v-9l1-1 2 1v12l-2 1h-11l-2-1v-3l-1-2h-6l-1 2 1 1h3l1 2zm23 0 1-1v-3l2-2h5l2 2v3l1 1h12l1-1v-6l-1-2h-6l-1 2 1 1h3l1 2-1 1h-6l-1-1v-3l-2-2h-11l-2 2v6zm6 0 1-1-1-2-2 2zm-6-11h34l2-2-2-1h-34l-2 1zm34 11h-6l-1-1v-6l1-2h9l1-1v-3l2-1 1 1v9l2 1 1-1v-9l2-1 1 1v9l1 1h1l1-1v-9l1-1 2 1v12l-2 1h-11l-2-1v-3l-1-2h-6l-1 2 1 1h3l2 2zm23 0 1-1v-3l2-2h6l1 2v3l1 1h12l1-1v-6l-1-2h-6l-1 2 1 1h3l2 2-2 1h-6l-1-1v-3l-1-2h-12l-1 2v6zm6 0 1-1-1-2-2 2zm-6-11h34l2-2-2-1h-34l-1 1zm34 11h-5l-2-1v-6l2-2h8l2-1v-3l1-1 2 1v9l1 1 1-1v-9l2-1 1 1v9l2 1 1-1v-9l1-1h1l1 1v12l-1 1h-12l-1-1v-3l-2-2h-6l-1 2 1 1h3l2 2z"/><path d="m1 203h23l2-1v-3l-2-2h-23l-1 2v3zm29 0h23l1-1v-3l-1-2h-23l-1 2v3zm29 0h23l1-1v-3l-1-2h-23l-2 2v3zm28 0h23l2-1v-3l-2-2h-23l-1 2v3zm29 0h23l1-1v-3l-1-2h-23l-2 2v3zm28 0h23l2-1v-3l-2-2h-23l-1 2v3zm29 0h23l1-1v-3l-1-2h-23l-1 2v3zm29 0h23l1-1v-3l-1-2h-23l-2 2v3zm28 0h23l2-1v-3l-2-2h-23l-1 2v3zm29 0h23l1-1v-3l-1-2h-23l-2 2v3zm28 0h23l2-1v-3l-2-2h-23l-1 2v3zm29 0h23l1-1v-3l-1-2h-23l-1 2v3zm29 0h23l1-1v-3l-1-2h-23l-2 2v3zm28 0h23l2-1v-3l-2-2h-23l-1 2v3zm29 0h23l1-1v-3l-1-2h-23l-2 2v3zm28 0h23l2-1v-3l-2-2h-23l-1 2v3zm29 0h23l1-1v-3l-1-2h-23l-1 2v3zm29 0h23l1-1v-3l-1-2h-23l-2 2v3zm23 115-2 1v3l-1 2h-6l-1-2v-3l-2-1h-11l-2 1v6l2 2h5l2-2-2-1h-2l-2-2 2-1h5l2 1v3l1 2h12l1-2v-6zm-6 0-2 1 2 2 1-2zm6 11h-35l-1 2 1 1h35l1-1zm-35-11h6l1 1v6l-1 2h-9l-1 1v3l-1 1h-1l-1-1v-9l-1-1-2 1v9l-1 1-2-1v-9l-1-1-2 1v9l-1 1-1-1v-12l1-1h12l1 1v3l1 2h6l2-2-2-1h-3l-1-2zm-23 0-1 1v3l-2 2h-5l-2-2v-3l-1-1h-12l-1 1v6l1 2h6l2-2-2-1h-3l-1-2 1-1h6l1 1v3l2 2h11l2-2v-6zm-5 0-2 1 2 2 1-2zm5 11h-34l-1 2 1 1h34l2-1zm-34-11h6l1 1v6l-1 2h-9l-1 1v3l-2 1-1-1v-9l-1-1h-1l-1 1v9l-1 1-2-1v-9l-1-1-2 1v9l-1 1-2-1v-12l2-1h11l2 1v3l1 2h6l1-2-1-1h-3l-1-2zm-23 0-1 1v3l-2 2h-5l-2-2v-3l-1-1h-12l-1 1v6l1 2h6l1-2-1-1h-3l-1-2 1-1h6l1 1v3l2 2h11l2-2v-6zm-6 0-1 1 1 2 2-2zm6 11h-34l-2 2 2 1h34l2-1zm-34-11h6l1 1v6l-1 2h-9l-1 1v3l-2 1-1-1v-9l-2-1-1 1v9l-2 1-1-1v-9l-1-1h-1l-1 1v9l-1 1-2-1v-12l2-1h11l2 1v3l1 2h6l1-2-1-1h-3l-2-2zm-23 0-1 1v3l-2 2h-6l-1-2v-3l-1-1h-12l-1 1v6l1 2h6l1-2-1-1h-3l-1-2 1-1h6l1 1v3l1 2h12l1-2v-6zm-6 0-1 1 1 2 2-2zm6 11h-34l-2 2 2 1h34l1-1zm-34-11h5l2 1v6l-2 2h-8l-2 1v3l-1 1-2-1v-9l-1-1-1 1v9l-2 1-1-1v-9l-2-1-1 1v9l-1 1h-1l-1-1v-12l1-1h12l1 1v3l2 2h6l1-2-1-1h-3l-2-2zm-23 0-2 1v3l-1 2h-6l-1-2v-3l-2-1h-11l-2 1v6l2 2h6l1-2-1-1h-3l-2-2 2-1h5l2 1v3l1 2h12l1-2v-6zm-6 0-1 1 1 2 1-2zm6 11h-35l-1 2 1 1h35l1-1zm-35-11h6l2 1v6l-2 2h-8l-2 1v3l-1 1-2-1v-9l-1-1-2 1v9l-1 1-1-1v-9l-2-1-1 1v9l-2 1-1-1v-12l1-1h12l1 1v3l2 2h5l2-2-2-1h-3l-1-2zm-22 0-2 1v3l-1 2h-6l-1-2v-3l-2-1h-11l-2 1v6l2 2h5l2-2-2-1h-2l-2-2 2-1h5l2 1v3l1 2h12l1-2v-6zm-6 0-2 1 2 2 1-2zm6 11h-35l-1 2 1 1h35l1-1zm-35-11h6l1 1v6l-1 2h-9l-1 1v3l-1 1h-1l-1-1v-9l-1-1-2 1v9l-1 1-2-1v-9l-1-1-1 1v9l-2 1-1-1v-12l1-1h12l1 1v3l1 2h6l2-2-2-1h-3l-1-2zm-23 0-1 1v3l-1 2h-6l-2-2v-3l-1-1h-12l-1 1v6l1 2h6l2-2-2-1h-3l-1-2 1-1h6l2 1v3l1 2h11l2-2v-6zm-5 0-2 1 2 2 1-2zm5 11h-34l-1 2 1 1h34l2-1zm-34-11h6l1 1v6l-1 2h-9l-1 1v3l-2 1-1-1v-9l-1-1h-1l-1 1v9l-1 1-2-1v-9l-1-1-2 1v9l-1 1-2-1v-12l2-1h11l2 1v3l1 2h6l1-2-1-1h-3l-1-2zm-23 0-1 1v3l-2 2h-5l-2-2v-3l-1-1h-12l-1 1v6l1 2h6l1-2-1-1h-3l-1-2 1-1h6l1 1v3l2 2h11l2-2v-6zm-6 0-1 1 1 2 2-2zm6 11h-34l-2 2 2 1h34l2-1zm-34-11h6l1 1v6l-1 2h-9l-1 1v3l-2 1-1-1v-9l-2-1-1 1v9l-2 1-1-1v-9l-1-1h-1l-1 1v9l-1 1-2-1v-12l2-1h11l2 1v3l1 2h6l1-2-1-1h-3l-2-2zm-23 0-1 1v3l-2 2h-6l-1-2v-3l-1-1h-12l-1 1v6l1 2h6l1-2-1-1h-3l-2-2 2-1h6l1 1v3l1 2h12l1-2v-6zm-6 0-1 1 1 2 2-2zm6 11h-34l-2 2 2 1h34l1-1zm-34-11h5l2 1v6l-2 2h-8l-2 1v3l-1 1-2-1v-9l-1-1-1 1v9l-2 1-1-1v-9l-2-1-1 1v9l-1 1h-1l-1-1v-12l1-1h12l1 1v3l2 2h6l1-2-1-1h-3l-2-2zm492-9h-23l-2 1v3l2 2h23l1-2v-3zm-29 0h-23l-1 1v3l1 2h23l1-2v-3zm-29 0h-23l-1 1v3l1 2h23l2-2v-3zm-28 0h-23l-2 1v3l2 2h23l1-2v-3zm-29 0h-23l-1 1v3l1 2h23l2-2v-3zm-28 0h-23l-2 1v3l2 2h23l1-2v-3zm-29 0h-23l-1 1v3l1 2h23l1-2v-3zm-29 0h-23l-1 1v3l1 2h23l2-2v-3zm-28 0h-23l-2 1v3l2 2h23l1-2v-3zm-29 0h-23l-1 1v3l1 2h23l2-2v-3zm-28 0h-23l-2 1v3l2 2h23l1-2v-3zm-29 0h-23l-1 1v3l1 2h23l1-2v-3zm-29 0h-23l-1 1v3l1 2h23l2-2v-3zm-28 0h-23l-2 1v3l2 2h23l1-2v-3zm-29 0h-23l-1 1v3l1 2h23l2-2v-3zm-28 0h-23l-2 1v3l2 2h23l1-2v-3zm-29 0h-23l-1 1v3l1 2h23l1-2v-3zm-29 0h-23l-1 1v3l1 2h23l2-2v-3z"/></g><g fill="#ff4b55"><path d="m249 214c2 1 5 0 7-2 3 3 8 3 11 0 2-2 2-4 2-7-3 4-8 5-12 3l-1-1c-4 3-9 3-12-1l-1-1c-1 4 2 8 6 9zm16 82a48 48 0 0 0 10-77l-1 1c14 23 9 52-13 68l1-65-1-2-3-3h-4l-3 3-1 2 1 65a52 52 0 0 1 -13-68l-1-1a48 48 0 0 0 10 76c-6 3-12 4-19 4v1c8 2 17 3 24 1l4 6h1l3-6c7 2 16 1 24-1v-1c-7 0-13-1-19-3z"/><path d="m303 235c-5-9-13-16-22-19l-1 1a52 52 0 0 1 7 74c20-11 27-36 16-56zm-80 52a52 52 0 0 1 9-70l-1-1a41 41 0 0 0 -6 75z"/></g></svg>