<svg xmlns="http://www.w3.org/2000/svg" viewBox="0 0 512 512"><path fill="#F5F5F5" d="M473.65 88.28H38.35A38.34 38.34 0 0 0 0 126.62v258.76a38.34 38.34 0 0 0 38.34 38.34h435.31A38.34 38.34 0 0 0 512 385.38V126.62a38.34 38.34 0 0 0-38.34-38.34z"/><path fill="#FF4B55" d="M305.01 182.53c-40.56-27.04-95.35-15.98-122.38 24.5a44.1 44.1 0 1 0 73.4 48.95 44.1 44.1 0 1 1 73.4 48.94A88.27 88.27 0 0 0 305 182.53"/><path fill="#41479B" d="M182.63 207.04a44.1 44.1 0 1 0 73.4 48.94 44.1 44.1 0 1 1 73.39 48.95c-27.01 40.63-81.78 51.55-122.34 24.5a88.27 88.27 0 0 1-24.46-122.38"/><path fill="#464655" d="m349.92 149.19 16.04 24.1a4.41 4.41 0 0 1-1.22 6.11l-4.07 2.73a4.42 4.42 0 0 1-6.13-1.22l-16.05-24.1a4.42 4.42 0 0 1 1.22-6.12l4.08-2.73a4.4 4.4 0 0 1 6.12 1.23zm24.74 37.16 16.09 24.09a4.41 4.41 0 0 1-1.24 6.13l-4.08 2.7a4.41 4.41 0 0 1-6.1-1.23l-16.09-24.06a4.41 4.41 0 0 1 1.22-6.12l4.08-2.72a4.41 4.41 0 0 1 6.12 1.22zm-7.57-48.62L407.92 199a4.41 4.41 0 0 1-1.23 6.12l-4.1 2.74a4.42 4.42 0 0 1-6.12-1.23l-40.84-61.27a4.42 4.42 0 0 1 1.23-6.12l4.12-2.74a4.42 4.42 0 0 1 6.12 1.23zm17.12-11.44 16.07 24.15a4.41 4.41 0 0 1-1.24 6.13l-4.09 2.7a4.41 4.41 0 0 1-6.1-1.24l-16.08-24.11a4.41 4.41 0 0 1 1.22-6.13l4.1-2.73a4.41 4.41 0 0 1 6.12 1.23zm24.76 37.24 16.04 24.1a4.41 4.41 0 0 1-1.22 6.12l-4.07 2.72a4.42 4.42 0 0 1-6.13-1.23l-16.04-24.1a4.42 4.42 0 0 1 1.22-6.12l4.07-2.72a4.41 4.41 0 0 1 6.13 1.22zM132.72 293.98l40.82 61.2a4.42 4.42 0 0 1-1.22 6.13l-4.09 2.73a4.42 4.42 0 0 1-6.12-1.23L121.3 301.6a4.41 4.41 0 0 1 1.22-6.12l4.09-2.73a4.41 4.41 0 0 1 6.12 1.22zm-17.14 11.45 16.03 24.04a4.41 4.41 0 0 1-1.22 6.12l-4.06 2.72a4.42 4.42 0 0 1-6.13-1.22l-16.04-24.04a4.41 4.41 0 0 1 1.22-6.12l4.1-2.73a4.41 4.41 0 0 1 6.11 1.22zm24.77 37.17 16.05 24.1a4.41 4.41 0 0 1-1.23 6.12l-4.07 2.73a4.41 4.41 0 0 1-6.13-1.22l-16.05-24.1a4.42 4.42 0 0 1 1.23-6.12l4.08-2.73a4.42 4.42 0 0 1 6.13 1.23zm-41.9-25.73 40.79 61.21a4.42 4.42 0 0 1-1.22 6.12l-4.08 2.73a4.43 4.43 0 0 1-6.12-1.22L86.99 324.5a4.41 4.41 0 0 1 1.22-6.12l4.1-2.74a4.42 4.42 0 0 1 6.13 1.23zm22.84-106.43 40.82-61.26a4.41 4.41 0 0 1 6.13-1.22l4.08 2.73a4.41 4.41 0 0 1 1.22 6.12l-40.83 61.22a4.41 4.41 0 0 1-6.1 1.23l-4.08-2.7a4.41 4.41 0 0 1-1.24-6.12zm-17.14-11.43 40.82-61.27a4.41 4.41 0 0 1 6.13-1.22l4.07 2.72a4.41 4.41 0 0 1 1.22 6.12l-40.8 61.27a4.4 4.4 0 0 1-6.13 1.22l-4.09-2.73a4.42 4.42 0 0 1-1.22-6.12zm-17.16-11.39 40.83-61.33a4.41 4.41 0 0 1 6.13-1.22l4.07 2.73a4.41 4.41 0 0 1 1.22 6.11l-40.8 61.34a4.41 4.41 0 0 1-6.12 1.23l-4.1-2.74a4.41 4.41 0 0 1-1.23-6.12zm251.5 167.57 16.05-24.04a4.41 4.41 0 0 1 6.13-1.21l4.06 2.72a4.41 4.41 0 0 1 1.22 6.11l-16.03 24.04a4.41 4.41 0 0 1-6.12 1.23l-4.09-2.73a4.42 4.42 0 0 1-1.2-6.13zm24.75-37.05 16.08-24.15a4.41 4.41 0 0 1 6.12-1.23l4.09 2.73a4.41 4.41 0 0 1 1.22 6.12l-16.1 24.12a4.41 4.41 0 0 1-6.11 1.23l-4.06-2.7a4.41 4.41 0 0 1-1.24-6.12zm-7.61 48.56 16.05-24.1a4.41 4.41 0 0 1 6.12-1.23l4.1 2.74a4.42 4.42 0 0 1 1.23 6.12l-16.05 24.1a4.41 4.41 0 0 1-6.12 1.23l-4.12-2.74a4.42 4.42 0 0 1-1.22-6.13zm24.77-37.24 16.07-24.04a4.41 4.41 0 0 1 6.1-1.22l4.1 2.74a4.42 4.42 0 0 1 1.23 6.13l-16.06 24.04a4.42 4.42 0 0 1-6.12 1.22l-4.1-2.73a4.41 4.41 0 0 1-1.22-6.13zm-7.63 48.62 16.08-24.05a4.41 4.41 0 0 1 6.1-1.23l4.08 2.7a4.42 4.42 0 0 1 1.24 6.12l-16.07 24.1a4.41 4.41 0 0 1-6.12 1.22l-4.1-2.73a4.41 4.41 0 0 1-1.22-6.13zm24.78-37.11 16.04-24.09a4.4 4.4 0 0 1 6.12-1.22l4.07 2.73a4.42 4.42 0 0 1 1.22 6.12l-16.05 24.05a4.4 4.4 0 0 1-6.11 1.23l-4.06-2.69a4.41 4.41 0 0 1-1.23-6.12z"/></svg>