<svg xmlns="http://www.w3.org/2000/svg" viewBox="0 0 512 512"><path fill="#FF4B55" d="M473.7 423.7H38.3A38.3 38.3 0 0 1 0 385.4V126.6a38.3 38.3 0 0 1 38.3-38.3h435.4a38.3 38.3 0 0 1 38.3 38.3v258.8a38.3 38.3 0 0 1-38.3 38.3z"/><path fill="#73AF00" d="M38.3 88.3A38.3 38.3 0 0 0 0 126.6v258.8a38.3 38.3 0 0 0 38.3 38.3h147V88.3h-147z"/><circle cx="185.4" cy="256" r="79.4" fill="#FFE15A"/><path fill="#FF4B55" d="M212 229.5v35.3a26.5 26.5 0 0 1-53 0v-35.3h53m8.7-17.6h-70.6a8.8 8.8 0 0 0-8.8 8.8v44.1a44.1 44.1 0 0 0 88.3 0v-44.1c0-4.9-4-8.8-8.8-8.8z"/><path fill="#F5F5F5" d="M212 229.5v35.3a26.5 26.5 0 0 1-53 0v-35.3h53"/><g fill="#FFE15A"><circle cx="150.1" cy="220.7" r="4.4"/><circle cx="220.7" cy="220.7" r="4.4"/><circle cx="150.1" cy="256" r="4.4"/><circle cx="220.7" cy="256" r="4.4"/><circle cx="185.4" cy="220.7" r="4.4"/><circle cx="211.9" cy="288.5" r="4.4"/><circle cx="159.4" cy="288.5" r="4.4"/></g><path fill="#41479B" d="M191.2 253.8v7.6a5.7 5.7 0 0 1-11.5 0v-7.6h11.4m0-18v7.6a5.7 5.7 0 0 1-11.4 0v-7.7h11.4m0 36.3v7.6a5.7 5.7 0 0 1-11.4 0V272h11.4m15.4-18.2v7.6a5.7 5.7 0 0 1-11.4 0v-7.6h11.4m-30.7 0v7.6a5.7 5.7 0 0 1-11.4 0v-7.6h11.4"/></svg>