<svg xmlns="http://www.w3.org/2000/svg" viewBox="0 0 512 512"><path fill="#F5F5F5" d="M0 385.4a38.3 38.3 0 0 0 38.3 38.3h435.4a38.3 38.3 0 0 0 38.3-38.3v-73.5H0v73.5z"/><path fill="#FF4B55" d="M473.7 88.3H38.3A38.3 38.3 0 0 0 0 126.6v73.5h512v-73.5a38.3 38.3 0 0 0-38.3-38.3z"/><path fill="#41479B" d="M0 200h512v112H0z"/><path fill="#FFE15A" d="M173 200h-63.5l-2.7-15.8h68.9"/><path fill="#FFD350" d="m108.8 196.1.7 4H173l.7-4"/><g fill="#FFE15A"><path d="M140 147.1h2.6v10.6h-2.7z"/><path d="M137.3 149.8h8v2.6h-8zm36 39.7c-.4 0-.7 0-1-.2-1.3-.5-2-2-1.6-3.4l5.6-15.5c.3-.7.3-1.6-.1-2.3-.2-.3-.7-1-1.7-1.2-6.8-1.5-20-3.9-32-3.9H140c-12 0-25.2 2.4-32 3.9-1 .2-1.5.9-1.7 1.2-.4.7-.4 1.6-.2 2.4l5.6 15.4a2.7 2.7 0 0 1-5 1.8l-5.5-15.4c-.8-2.3-.7-4.7.5-6.7 1-2 3-3.4 5.1-3.9 7-1.5 20.7-4 33.2-4h2.5c12.4 0 26.1 2.5 33.1 4a8 8 0 0 1 5.2 3.9c1.1 2 1.3 4.4.5 6.7l-5.6 15.4a2.7 2.7 0 0 1-2.5 1.8z"/><path d="M141.3 187.2a2.6 2.6 0 0 1-2.7-2.7V163a2.6 2.6 0 1 1 5.3 0v21.5c0 1.5-1.2 2.7-2.6 2.7z"/><path d="M159.6 189.5h-.6a2.6 2.6 0 0 1-2-3.2l3.2-15.5c.4-2-.3-3.8-.6-4A56 56 0 0 0 142 163h-1.5c-6.5 0-14 2.4-17.7 3.8a6 6 0 0 0-.5 4l3.2 15.5a2.6 2.6 0 0 1-5.2 1l-3.2-15.4c-.8-3.9.5-8.8 3.8-10 5.1-2 12.6-4.2 19.6-4.2h1.5c7 0 14.5 2.2 19.6 4.1 3.3 1.3 4.6 6.2 3.8 10l-3.2 15.6a2.6 2.6 0 0 1-2.6 2z"/></g><path fill="#FFD350" d="M107.5 188.2H175l.7-4h-68.9"/><path fill="#FF4B55" d="M91 200a2.6 2.6 0 0 0-2.7 2.7v92.5a53 53 0 1 0 106 0v-92.5c0-1.4-1.3-2.6-2.7-2.6H90.9z"/><path fill="#F5F5F5" d="m146.5 287.5 5.3-13.3-10.6 2.7-10.6-2.7 5.3 13.3-13.2 45s8 5.3 18.5 5.3 18.6-5.3 18.6-5.3l-13.3-45z"/><path fill="#FFE15A" d="m122 298.1-4.6 1.2 10.3-18.5-4.7-2.6-12.4 22.5H98.9v5.3h5.7l-7.4 5.9 3.3 4.1 6.3-5-2.5 7.4 5 1.7 4.9-14.5 9.2-2.3"/><path fill="#F5F5F5" d="m122.7 226.6-12-6a5.3 5.3 0 0 1-2.9-6.1l.7-2.7a3 3 0 0 0-5.2-2.7 44.2 44.2 0 0 0-9.7 27.7v56s11-2.3 21-16.8c1.9-2.7 4.9-4.2 8-4.4l-5.2 15.9L128 290l9.3-11-14.6-52.5z"/><path fill="#FFE15A" d="m160.4 298.1 4.7 1.2-10.3-18.5 4.6-2.6 12.5 22.5h11.7v5.3H178l7.4 5.9-3.4 4.1-6.2-5 2.5 7.4-5 1.7-4.9-14.5-9.2-2.3"/><path fill="#F5F5F5" d="m159.8 226.6 12-6a5.3 5.3 0 0 0 2.8-6.1l-.6-2.7a3 3 0 0 1 5.2-2.7 44.2 44.2 0 0 1 9.7 27.7v56s-11-2.3-21-16.8a10.4 10.4 0 0 0-8.1-4.4l5.3 15.9-10.6 2.6-9.3-11 14.6-52.5z"/><path fill="#FFE15A" d="M125.4 208H112l4 5.3 9.3 2.7-5.3 2.6h7.9M157 208h13.3l-4 5.3-9.3 2.7 5.3 2.6h-8"/><path fill="#F5F5F5" d="m159 206-12.5 2-5.3 10.6L136 208l-12.5-2a1.8 1.8 0 0 0-1.9 2.5l6.4 12.8-5.3 5.3h37l-5.2-5.3 6.4-12.8c.6-1.3-.5-2.8-1.9-2.6z"/><circle cx="141.2" cy="185.3" r="4" fill="#FFBE50"/><ellipse cx="141.2" cy="194.8" fill="#41479B" rx="3.1" ry="2.2"/><ellipse cx="125.5" cy="194.8" fill="#FF4B55" rx="3.1" ry="2.2"/><g fill="#41479B"><ellipse cx="109.8" cy="194.8" rx="3.1" ry="2.2"/><ellipse cx="172.5" cy="194.8" rx="3.1" ry="2.2"/></g><ellipse cx="156.8" cy="194.8" fill="#FF4B55" rx="3.1" ry="2.2"/><g fill="#FFBE50"><circle cx="159.7" cy="185.3" r="4"/><circle cx="174.2" cy="185.3" r="4"/><circle cx="122.9" cy="185.3" r="4"/><circle cx="108.3" cy="185.3" r="4"/></g><path fill="#41479B" d="M145.8 163a5 5 0 0 0 .7-2.7 5.3 5.3 0 0 0-10.5 0c0 1 .2 1.9.7 2.7h9.1z"/><path fill="#FF4B55" d="M141.2 280.8c-11 0-19.8-8.9-19.8-19.8v-35.8H161V261c0 11-9 19.8-19.9 19.8z"/><path fill="#A54B50" d="M159.8 226.6V261a18.5 18.5 0 0 1-37.1 0v-34.4h37m2.7-2.7H120v37a21.2 21.2 0 0 0 42.4 0v-37z"/><g fill="#F5F5F5"><path d="M137.3 279a18.5 18.5 0 0 0 8 0v-52.5h-8v52.6z"/><path d="M122.7 248.4h37v8h-37z"/></g></svg>