<svg xmlns="http://www.w3.org/2000/svg" viewBox="0 0 512 512"><path fill="#f5f5f5" d="M473.7 88.3H38.3A38.3 38.3 0 0 0 0 126.6v73.5h512v-73.5a38.3 38.3 0 0 0-38.3-38.3z"/><path fill="#ff4b55" d="M0 385.4a38.3 38.3 0 0 0 38.3 38.3h435.4a38.3 38.3 0 0 0 38.3-38.3v-73.5H0v73.5z"/><path fill="#41479b" d="M0 200h512V312H0z"/><path fill="#ff4b55" d="M130.2 339.3c-2.6-1.5-64-37.2-64-92.1v-75h132.4v75c0 54.9-61.4 90.6-64 92l-2.2 1.3-2.2-1.2z"/><path fill="#f5f5f5" d="m167 234-20.7 2.7h-7v-12.4h4.2l16.7 2.7-2.3-9.7 2.3-9.7-16.7 2.8h-4.2v-4.2l2.8-20.8-9.7 2.8-9.7-2.8 2.8 20.8v4.2h-4.2l-16.6-2.8 2.2 9.7-2.2 9.7 16.6-2.7h4.2v12.4h-7l-20.8-2.8 2.9 9.7-2.9 9.7 20.8-2.8h7v32h13.9v-32h6.9l20.8 2.8-2.8-9.7z"/><path fill="#41479b" d="M132.4 269.2a22 22 0 0 0-20.3 13.5l-1.8-.2a22 22 0 0 0-21.9 20.8c17.9 22 40.3 35 41.8 36l2.2 1.2 2.2-1.2c1.6-1 24-14 41.8-36a22 22 0 0 0-22-20.8l-1.7.2a22 22 0 0 0-20.3-13.5z"/><path fill="#f5f5f5" d="M194.2 176.6v70.6c0 53-61.8 88.2-61.8 88.2s-61.8-35.3-61.8-88.2v-70.6h123.6m8.8-8.9H61.8v79.5c0 57.4 63.5 94.4 66.2 96l4.4 2.4 4.4-2.5c2.7-1.5 66.2-38.5 66.2-96v-79.4z"/></svg>