<svg xmlns="http://www.w3.org/2000/svg" viewBox="0 0 512 512"><path fill="#c8414b" d="M0 385.38c0 21.176 17.167 38.344 38.345 38.344h435.31c21.177 0 38.345-17.167 38.345-38.345V353.1H0zM473.655 88.276H38.345C17.167 88.276 0 105.443 0 126.62v32.277h512V126.62c0-21.177-17.167-38.344-38.345-38.344z"/><path fill="#ffd250" d="M0 158.9h512v194.21H0z"/><path fill="#c8414b" d="m216.276 256 7.485-33.68c.69-3.103-1.67-6.045-4.845-6.045h-5.272c-3.176 0-5.536 2.943-4.85 6.044z"/><path fill="#f5f5f5" d="M207.45 238.34h17.655v75.03H207.45z"/><path fill="#fab446" d="M203.03 229.52h26.483v8.828H203.03z"/><path fill="#c8414b" d="M185.38 256h44.14v8.828h-44.14zm44.137 35.31-26.483-8.827v-8.828l26.483 8.828zM83.862 256l7.485-33.68c.69-3.103-1.67-6.045-4.85-6.045h-5.27c-3.178 0-5.538 2.943-4.85 6.044z"/><path fill="#f5f5f5" d="M114.76 229.517c-4.876 0-8.83 3.953-8.83 8.828v57.38c0 10.724 10.01 30.896 44.14 30.896s44.137-20.17 44.137-30.893v-57.38a8.829 8.829 0 0 0-8.828-8.827z"/><path fill="#c8414b" d="M150.07 273.655h-44.14v-35.31c0-4.875 3.954-8.828 8.83-8.828h35.31zm0 0h44.137v22.07c0 12.188-9.88 22.068-22.07 22.068-12.188 0-22.068-9.88-22.068-22.07z"/><path fill="#fab446" d="M105.93 273.655h44.14v22.07c0 12.188-9.88 22.068-22.07 22.068s-22.07-9.88-22.07-22.07z"/><path fill="#c8414b" d="M141.24 313.28v-39.625h-8.827v43.693c3.284-.666 6.25-2.12 8.828-4.068zm-17.654 4.068v-43.693h-8.828v39.625c2.578 1.948 5.545 3.402 8.828 4.068z"/><path fill="#ffb441" d="M114.76 256h26.483v8.828H114.76z"/><path fill="#fab446" d="M114.76 238.34h26.483v8.828H114.76z"/><path fill="#fab446" d="M119.17 243.59h17.655v15.992H119.17z"/><path fill="#f5f5f5" d="M75.03 238.34h17.655v75.03H75.03z"/><path fill="#fab446" d="M70.62 308.97h26.483v8.828H70.62zm0-79.45h26.483v8.828H70.62z"/><path fill="#5064aa" d="M66.21 317.79h35.31v8.828H66.21z"/><path fill="#fab446" d="M207.45 308.97h26.483v8.828H207.45z"/><path fill="#5064aa" d="M198.62 317.79h35.31v8.828h-35.31z"/><path fill="#fab446" d="M123.59 220.69h52.966v8.828H123.59z"/><path fill="#ffb441" d="M145.66 194.21h8.828v26.483h-8.828z"/><g fill="#f5f5f5"><path d="M141.24 207.448c-7.3 0-13.24-5.94-13.24-13.24 0-7.303 5.94-13.242 13.24-13.242 7.303 0 13.242 5.94 13.242 13.24 0 7.302-5.94 13.242-13.24 13.242zm0-17.655a4.417 4.417 0 0 0-4.413 4.414 4.417 4.417 0 0 0 8.832.004 4.417 4.417 0 0 0-4.414-4.414z"/><path d="M158.897 207.448c-7.302 0-13.24-5.94-13.24-13.24 0-7.303 5.94-13.242 13.24-13.242 7.302 0 13.24 5.94 13.24 13.24s-5.94 13.242-13.24 13.242zm0-17.655a4.417 4.417 0 0 0-4.414 4.414 4.414 4.414 0 0 0 8.828.004 4.414 4.414 0 0 0-4.41-4.414z"/><path d="M176.552 216.276c-7.302 0-13.24-5.94-13.24-13.24 0-7.303 5.94-13.242 13.24-13.242 7.302 0 13.24 5.94 13.24 13.24s-5.94 13.242-13.24 13.242zm0-17.655a4.415 4.415 0 0 0 0 8.832c2.435 0 4.414-1.98 4.414-4.414s-1.98-4.414-4.414-4.414zm-52.966 17.658c-7.302 0-13.24-5.94-13.24-13.24 0-7.303 5.94-13.242 13.24-13.242 7.302 0 13.24 5.94 13.24 13.24.002 7.302-5.938 13.242-13.24 13.242zm0-17.655c-2.435 0-4.414 1.98-4.414 4.416s1.978 4.413 4.414 4.413 4.414-1.98 4.414-4.416a4.416 4.416 0 0 0-4.414-4.413z"/></g><path fill="#fab446" d="M176.552 291.31v4.414c0 2.434-1.98 4.414-4.414 4.414s-4.414-1.98-4.414-4.414v-4.414zm8.827-8.827h-26.487v13.24c0 7.303 5.94 13.242 13.24 13.242 7.303 0 13.242-5.94 13.242-13.24v-13.242z"/><path fill="#ffa0d2" d="M172.138 264.828A8.829 8.829 0 0 1 163.31 256v-8.828a8.829 8.829 0 0 1 17.656 0V256a8.829 8.829 0 0 1-8.828 8.828z"/><circle cx="150.07" cy="273.65" r="13.241" fill="#5064aa"/><path fill="#fab446" d="M145.66 176.55h8.828v26.483h-8.828z"/><path fill="#c8414b" d="m123.586 220.69-8.828-8.828 5.17-5.17a42.625 42.625 0 0 1 60.28-.001l5.172 5.175-8.828 8.828z"/><circle cx="150.07" cy="211.86" r="4.414" fill="#ffd250"/><circle cx="132.41" cy="211.86" r="4.414" fill="#ffd250"/><circle cx="167.72" cy="211.86" r="4.414" fill="#ffd250"/><path fill="#c8414b" d="M70.62 256h44.14v8.828H70.62zm0 35.31 26.483-8.827v-8.828l-26.482 8.828z"/></svg>