<svg viewBox="0 0 512 512" xmlns="http://www.w3.org/2000/svg"><path d="m474 88h-436c-21 0-38 17-38 39v258c0 22 17 39 38 39h436c21 0 38-17 38-39v-258c0-22-17-39-38-39z" fill="#f5f5f5"/><path d="m2 114h508c-5-15-20-26-36-26h-436c-16 0-31 11-36 26zm-2 77h512v26h-512zm0-51h512v26h-512zm0 120c0 5 4 9 9 9h503v-26h-512zm0 86h512v26h-512zm510 52h-508c5 15 20 26 36 26h436c16 0 31-11 36-26zm-510-103h512v26h-512z" fill="#ff4b55"/><path d="m9 269h221c4 0 8-4 8-9v-163c0-5-4-9-8-9h-192c-21 0-38 17-38 39v133c0 5 4 9 9 9z" fill="#41479b"/><path d="m25 109 2 5h6v2l-5 4 2 6h-1l-5-3-5 3h-1l2-6-5-4v-2h6l2-5zm0 30 2 6h6v2l-5 3 2 6c1 1 0 2-1 1l-5-4-5 4c-1 1-2 0-1-1l2-6-5-3v-2h6l2-6zm0 31 2 6h6v1l-5 4 2 6c1 1 0 1-1 1l-5-4-5 4c-1 0-2 0-1-1l2-6-5-4v-1h6l2-6zm0 31 2 5h6v2l-5 4 2 5c1 1 0 2-1 1l-5-3-5 3c-1 1-2 0-1-1l2-5-5-4v-2h6l2-6h2zm0 30 2 6h6v2l-5 3 2 6c1 1 0 2-1 1l-5-4-5 4c-1 1-2 0-1-1l2-6-5-3v-2h6l2-6zm24-107 2 5h6v2l-5 4 2 6h-1l-5-3-5 3h-2l2-6-5-4 1-2h6l2-5zm0 30 2 6h6v2l-5 3 2 6-1 1-5-3-5 3c-1 1-2 0-2-1l2-6-5-3 1-2h6l2-6zm0 31 2 6h6v1l-5 4 2 6-1 1-5-4-5 4-2-1 2-6-5-4 1-1h6l2-6zm0 31 2 5h6v2l-5 4 2 5-1 1-5-3-5 3c-1 1-2 0-2-1l2-5-5-4 1-2h6l2-5zm23-107 2 5h6c1 0 2 1 1 2l-5 4 2 6h-1l-5-3-5 3h-2l2-6-5-4 1-2h6l2-5zm0 30 2 6h6c1 0 2 1 1 2l-5 3 2 6-1 1-5-4-5 4c-1 1-2 0-2-1l2-6-5-3 1-2h6l2-6zm0 31 2 6h6l1 1-5 4 2 6-1 1-5-4-5 4-2-1 2-6-5-4 1-1h6l2-6zm0 31 2 5h6c1 0 2 1 1 2l-5 4 2 5-1 1-5-3-5 3c-1 1-2 0-2-1l2-5-5-4 1-2h6l2-6h1zm0 30 2 6h6c1 0 2 1 1 2l-5 3 2 6-1 1-5-4-5 4c-1 1-2 0-2-1l2-6-5-3 1-2h6l2-6zm24-107 2 5h6l1 2-5 4 2 6h-2l-5-3-5 3h-1l2-6-5-4v-2h7l2-5zm0 30 2 6h6l1 2-5 3 2 6c0 1-1 2-2 1l-5-3-5 3-1-1 2-6-5-3v-2h7l2-6zm0 31 2 6h6l1 1-5 4 2 6-2 1-5-4-5 4-1-1 2-6-5-4v-1h7l2-6zm0 31 2 5h6l1 2-5 4 2 5c0 1-1 2-2 1l-5-3-5 3-1-1 2-5-5-4v-2h7l2-5zm24-107 2 5h6l1 2-5 4 1 6h-1l-5-3-5 3h-1l2-6-5-4v-2h6l2-5zm0 30 2 6h6l1 2-5 3 1 6c1 1 0 2-1 1l-5-4-5 4-1-1 2-6-5-3v-2h6l2-6zm0 31 2 6h6l1 1-5 4 1 6c1 1 0 1-1 1l-5-4-5 4-1-1 2-6-5-4v-1h6l2-6zm0 31 2 5h6l1 2-5 4 1 5c1 1 0 2-1 1l-5-3-5 3-1-1 2-5-5-4v-2h6l2-6h2zm0 30 2 6h6l1 2-5 3 1 6c1 1 0 2-1 1l-5-4-5 4-1-1 2-6-5-3v-2h6l2-6zm24-107 2 5h6v2l-5 4 2 6h-1l-5-3-5 3h-1l2-6-5-4v-2h6l2-5zm0 30 2 6h6v2l-5 3 2 6c0 1 0 2-1 1l-5-3-5 3c-1 1-2 0-1-1l2-6-5-3v-2h6l2-6zm0 31 2 6h6v1l-5 4 2 6-1 1-5-4-5 4c-1 0-2 0-1-1l2-6-5-4v-1h6l2-6zm0 31 2 5h6v2l-5 4 2 5c0 1 0 2-1 1l-5-3-5 3c-1 1-2 0-1-1l2-5-5-4v-2h6l2-5zm24-107 2 5h6v2l-5 4 2 6h-1l-5-3-5 3h-2l2-6-5-4 1-2h6l2-5zm0 30 2 6h6v2l-5 3 2 6-1 1-5-4-5 4c-1 1-2 0-2-1l2-6-5-3 1-2h6l2-6zm0 31 2 6h6v1l-5 4 2 6-1 1-5-4-5 4-2-1 2-6-5-4 1-1h6l2-6zm0 31 2 5h6v2l-5 4 2 5-1 1-5-3-5 3c-1 1-2 0-2-1l2-5-5-4 1-2h6l2-6h2zm0 30 2 6h6v2l-5 3 2 6-1 1-5-4-5 4c-1 1-2 0-2-1l2-6-5-3 1-2h6l2-6zm23-107 2 5h6l1 2-5 4 2 6h-1l-5-3-5 3h-2l2-6-5-4 1-2h6l2-5zm0 30 2 6h6c1 0 2 1 1 2l-5 3 2 6-1 1-5-3-5 3c-1 1-2 0-2-1l2-6-5-3 1-2h6l2-6zm0 31 2 6h6l1 1-5 4 2 6-1 1-5-4-5 4-2-1 2-6-5-4 1-1h6l2-6zm0 31 2 5h6c1 0 2 1 1 2l-5 4 2 5-1 1-5-3-5 3c-1 1-2 0-2-1l2-5-5-4 1-2h6l2-5zm24-107 2 5h6l1 2-5 4 2 6h-2l-5-3-5 3h-1l2-6-5-4v-2h7l2-5zm0 30 2 6h6l1 2-5 3 2 6c0 1-1 2-2 1l-5-4-5 4-1-1 2-6-5-3v-2h7l2-6zm0 31 2 6h6l1 1-5 4 2 6-2 1-5-4-5 4-1-1 2-6-5-4v-1h7l2-6zm0 31 2 5h6l1 2-5 4 2 5c0 1-1 2-2 1l-5-3-5 3-1-1 2-5-5-4v-2h7l2-6h1zm0 30 2 6h6l1 2-5 3 2 6c0 1-1 2-2 1l-5-4-5 4-1-1 2-6-5-3v-2h7l2-6z" fill="#f5f5f5"/></svg>